<svg width="24" height="24" viewBox="0 0 24 24" fill="none" xmlns="http://www.w3.org/2000/svg">
<path d="M3.40022 8.5929C0.289659 11.9958 2.66832 17 7.51714 17C11.1766 17 10.9022 15.1985 7.24268 14.7981C4.68104 14.598 4.2236 14.0975 4.2236 11.9958C4.2236 9.894 4.68104 9.39357 7.24268 9.1934C8.79796 8.99323 10.1703 8.49281 10.1703 7.8923C10.1703 6.39104 4.9555 6.89146 3.40022 8.5929Z" fill="black"/>
<path d="M13.8301 7.8923C13.8301 8.49281 15.2024 8.99323 16.8492 9.1934C19.3193 9.39357 19.7767 9.894 19.7767 11.9958C19.7767 14.0975 19.3193 14.598 16.8492 14.7981C13.0982 15.1985 12.8237 17 16.4832 17C21.332 17 23.7107 11.9958 20.6001 8.5929C19.0448 6.89146 13.8301 6.39104 13.8301 7.8923Z" fill="black"/>
<path d="M7.42578 11.9962C7.42578 12.4966 9.52998 12.9971 12.0001 12.9971C14.5618 12.9971 16.5745 12.4966 16.5745 11.9962C16.5745 11.3957 14.5618 10.9954 12.0001 10.9954C9.52998 10.9954 7.42578 11.3957 7.42578 11.9962Z" fill="black"/>
</svg>
