<svg width="178" height="184" viewBox="0 0 178 184" fill="none" xmlns="http://www.w3.org/2000/svg">
<rect width="178" height="184" fill="#1F1F21"/>
<path d="M131.5 40.5L59 168.5L85 0H103.5L131.5 40.5Z" fill="#29292B"/>
<path d="M150.656 18L59 184L177 76.7702V49.9627L150.656 18Z" fill="#29292B"/>
<path d="M178 92L78 184H178V92Z" fill="#262628"/>
<rect width="32" height="32" transform="translate(17 14)" fill="#474749"/>
<path d="M40.7778 22H39.6667V20H37.4444V22H28.5556V20H26.3333V22H25.2222C23.9889 22 23.0111 22.9 23.0111 24L23 38C23 39.1 23.9889 40 25.2222 40H40.7778C42 40 43 39.1 43 38V24C43 22.9 42 22 40.7778 22ZM40.7778 38H25.2222V28H40.7778V38ZM40.7778 26H25.2222V24H40.7778V26ZM33 31H38.5556V36H33V31Z" fill="white"/>
<path d="M154.013 29H139V31H154.013V34L159 30L154.013 26V29Z" fill="white"/>
<path d="M20.984 126V109.2H23.696V126H20.984ZM17.624 111.672V109.2H23.456V111.672H17.624ZM26.2033 124.368L32.3953 117.792C32.9073 117.248 33.3233 116.76 33.6433 116.328C33.9633 115.896 34.1953 115.488 34.3393 115.104C34.4833 114.72 34.5553 114.328 34.5553 113.928C34.5553 113.176 34.3073 112.592 33.8113 112.176C33.3313 111.744 32.7153 111.528 31.9633 111.528C31.1633 111.528 30.4593 111.728 29.8513 112.128C29.2433 112.528 28.6993 113.152 28.2193 114L26.2993 112.416C26.9553 111.28 27.7633 110.424 28.7233 109.848C29.6833 109.256 30.7953 108.96 32.0593 108.96C33.0993 108.96 34.0113 109.168 34.7953 109.584C35.5793 110 36.1873 110.584 36.6193 111.336C37.0513 112.072 37.2673 112.928 37.2673 113.904C37.2673 114.608 37.1793 115.24 37.0033 115.8C36.8433 116.344 36.5633 116.896 36.1633 117.456C35.7633 118 35.2113 118.64 34.5073 119.376L29.7553 124.296L26.2033 124.368ZM26.2033 126V124.368L28.5793 123.528H37.6033V126H26.2033Z" fill="white"/>
<path d="M18.064 150V140.2H19.674V150H18.064ZM26.1924 150V146.122C26.1924 145.674 26.0478 145.305 25.7584 145.016C25.4784 144.727 25.1144 144.582 24.6664 144.582C24.3678 144.582 24.1018 144.647 23.8684 144.778C23.6351 144.909 23.4531 145.091 23.3224 145.324C23.1918 145.557 23.1264 145.823 23.1264 146.122L22.5244 145.786C22.5244 145.273 22.6364 144.82 22.8604 144.428C23.0844 144.027 23.3924 143.714 23.7844 143.49C24.1858 143.257 24.6338 143.14 25.1284 143.14C25.6324 143.14 26.0804 143.271 26.4724 143.532C26.8644 143.784 27.1724 144.115 27.3964 144.526C27.6204 144.927 27.7324 145.347 27.7324 145.786V150H26.1924ZM21.5864 150V143.28H23.1264V150H21.5864ZM33.4161 146.304V144.904H35.8661C36.2021 144.904 36.4961 144.839 36.7481 144.708C37.0094 144.568 37.2148 144.377 37.3641 144.134C37.5134 143.882 37.5881 143.588 37.5881 143.252C37.5881 142.916 37.5134 142.627 37.3641 142.384C37.2148 142.132 37.0094 141.941 36.7481 141.81C36.4961 141.67 36.2021 141.6 35.8661 141.6H33.4161V140.2H35.9501C36.5661 140.2 37.1168 140.326 37.6021 140.578C38.0968 140.83 38.4841 141.185 38.7641 141.642C39.0534 142.099 39.1981 142.636 39.1981 143.252C39.1981 143.868 39.0534 144.405 38.7641 144.862C38.4841 145.319 38.0968 145.674 37.6021 145.926C37.1168 146.178 36.5661 146.304 35.9501 146.304H33.4161ZM32.3101 150V140.2H33.9201V150H32.3101ZM40.5493 150V143.28H42.0893V150H40.5493ZM42.0893 146.262L41.5573 145.996C41.5573 145.147 41.744 144.461 42.1173 143.938C42.5 143.406 43.074 143.14 43.8393 143.14C44.1753 143.14 44.4786 143.201 44.7493 143.322C45.02 143.443 45.272 143.639 45.5053 143.91L44.4973 144.946C44.376 144.815 44.2406 144.722 44.0913 144.666C43.942 144.61 43.7693 144.582 43.5733 144.582C43.144 144.582 42.7893 144.717 42.5093 144.988C42.2293 145.259 42.0893 145.683 42.0893 146.262ZM49.1254 150.14C48.4721 150.14 47.8794 149.986 47.3474 149.678C46.8154 149.361 46.3907 148.936 46.0734 148.404C45.7654 147.872 45.6114 147.279 45.6114 146.626C45.6114 145.973 45.7654 145.385 46.0734 144.862C46.3907 144.339 46.8154 143.924 47.3474 143.616C47.8794 143.299 48.4721 143.14 49.1254 143.14C49.7881 143.14 50.3854 143.294 50.9174 143.602C51.4494 143.91 51.8694 144.33 52.1774 144.862C52.4947 145.385 52.6534 145.973 52.6534 146.626C52.6534 147.279 52.4947 147.872 52.1774 148.404C51.8694 148.936 51.4494 149.361 50.9174 149.678C50.3854 149.986 49.7881 150.14 49.1254 150.14ZM49.1254 148.656C49.5081 148.656 49.8441 148.572 50.1334 148.404C50.4321 148.227 50.6607 147.984 50.8194 147.676C50.9874 147.368 51.0714 147.018 51.0714 146.626C51.0714 146.234 50.9874 145.889 50.8194 145.59C50.6514 145.291 50.4227 145.058 50.1334 144.89C49.8441 144.713 49.5081 144.624 49.1254 144.624C48.7521 144.624 48.4161 144.713 48.1174 144.89C47.8281 145.058 47.5994 145.291 47.4314 145.59C47.2727 145.889 47.1934 146.234 47.1934 146.626C47.1934 147.018 47.2727 147.368 47.4314 147.676C47.5994 147.984 47.8281 148.227 48.1174 148.404C48.4161 148.572 48.7521 148.656 49.1254 148.656ZM56.7341 152.94C56.0247 152.94 55.4041 152.809 54.8721 152.548C54.3401 152.296 53.9107 151.937 53.5841 151.47L54.5921 150.462C54.8627 150.798 55.1707 151.05 55.5161 151.218C55.8614 151.386 56.2767 151.47 56.7621 151.47C57.3687 151.47 57.8494 151.311 58.2041 150.994C58.5587 150.686 58.7361 150.261 58.7361 149.72V148.068L59.0021 146.584L58.7361 145.086V143.28H60.2761V149.72C60.2761 150.364 60.1267 150.924 59.8281 151.4C59.5294 151.885 59.1141 152.263 58.5821 152.534C58.0501 152.805 57.4341 152.94 56.7341 152.94ZM56.6641 149.86C56.0667 149.86 55.5254 149.715 55.0401 149.426C54.5641 149.127 54.1861 148.721 53.9061 148.208C53.6354 147.695 53.5001 147.121 53.5001 146.486C53.5001 145.851 53.6354 145.282 53.9061 144.778C54.1861 144.274 54.5641 143.877 55.0401 143.588C55.5254 143.289 56.0667 143.14 56.6641 143.14C57.1961 143.14 57.6627 143.247 58.0641 143.462C58.4654 143.677 58.7781 143.975 59.0021 144.358C59.2261 144.731 59.3381 145.17 59.3381 145.674V147.326C59.3381 147.821 59.2214 148.259 58.9881 148.642C58.7641 149.025 58.4514 149.323 58.0501 149.538C57.6487 149.753 57.1867 149.86 56.6641 149.86ZM56.9721 148.404C57.3454 148.404 57.6721 148.325 57.9521 148.166C58.2321 148.007 58.4467 147.788 58.5961 147.508C58.7547 147.219 58.8341 146.883 58.8341 146.5C58.8341 146.117 58.7547 145.786 58.5961 145.506C58.4467 145.217 58.2321 144.993 57.9521 144.834C57.6721 144.675 57.3454 144.596 56.9721 144.596C56.5987 144.596 56.2674 144.675 55.9781 144.834C55.6981 144.993 55.4787 145.217 55.3201 145.506C55.1614 145.786 55.0821 146.117 55.0821 146.5C55.0821 146.873 55.1614 147.205 55.3201 147.494C55.4787 147.783 55.6981 148.007 55.9781 148.166C56.2674 148.325 56.5987 148.404 56.9721 148.404ZM61.9868 150V143.28H63.5268V150H61.9868ZM63.5268 146.262L62.9948 145.996C62.9948 145.147 63.1815 144.461 63.5548 143.938C63.9375 143.406 64.5115 143.14 65.2768 143.14C65.6128 143.14 65.9161 143.201 66.1868 143.322C66.4575 143.443 66.7095 143.639 66.9428 143.91L65.9348 144.946C65.8135 144.815 65.6781 144.722 65.5288 144.666C65.3795 144.61 65.2068 144.582 65.0108 144.582C64.5815 144.582 64.2268 144.717 63.9468 144.988C63.6668 145.259 63.5268 145.683 63.5268 146.262ZM70.6049 150.14C69.9329 150.14 69.3262 149.991 68.7849 149.692C68.2529 149.384 67.8282 148.964 67.5109 148.432C67.2029 147.9 67.0489 147.303 67.0489 146.64C67.0489 145.977 67.2029 145.385 67.5109 144.862C67.8189 144.33 68.2342 143.91 68.7569 143.602C69.2889 143.294 69.8769 143.14 70.5209 143.14C71.1462 143.14 71.6969 143.285 72.1729 143.574C72.6582 143.863 73.0362 144.26 73.3069 144.764C73.5869 145.268 73.7269 145.842 73.7269 146.486C73.7269 146.598 73.7176 146.715 73.6989 146.836C73.6896 146.948 73.6709 147.074 73.6429 147.214H68.1269V145.954H72.8449L72.2709 146.458C72.2522 146.047 72.1729 145.702 72.0329 145.422C71.8929 145.142 71.6922 144.927 71.4309 144.778C71.1789 144.629 70.8662 144.554 70.4929 144.554C70.1009 144.554 69.7602 144.638 69.4709 144.806C69.1816 144.974 68.9576 145.212 68.7989 145.52C68.6402 145.819 68.5609 146.178 68.5609 146.598C68.5609 147.018 68.6449 147.387 68.8129 147.704C68.9809 148.021 69.2189 148.269 69.5269 148.446C69.8349 148.614 70.1896 148.698 70.5909 148.698C70.9362 148.698 71.2536 148.637 71.5429 148.516C71.8416 148.395 72.0936 148.217 72.2989 147.984L73.2789 148.978C72.9522 149.361 72.5556 149.65 72.0889 149.846C71.6222 150.042 71.1276 150.14 70.6049 150.14ZM77.1594 150.14C76.7861 150.14 76.4268 150.093 76.0814 150C75.7361 149.897 75.4188 149.757 75.1294 149.58C74.8401 149.393 74.5881 149.169 74.3734 148.908L75.3534 147.928C75.5868 148.199 75.8528 148.404 76.1514 148.544C76.4594 148.675 76.8048 148.74 77.1874 148.74C77.5328 148.74 77.7941 148.689 77.9714 148.586C78.1488 148.483 78.2374 148.334 78.2374 148.138C78.2374 147.933 78.1534 147.774 77.9854 147.662C77.8174 147.55 77.5981 147.457 77.3274 147.382C77.0661 147.298 76.7861 147.214 76.4874 147.13C76.1981 147.046 75.9181 146.934 75.6474 146.794C75.3861 146.645 75.1714 146.444 75.0034 146.192C74.8354 145.94 74.7514 145.613 74.7514 145.212C74.7514 144.783 74.8494 144.414 75.0454 144.106C75.2508 143.798 75.5354 143.56 75.8994 143.392C76.2728 143.224 76.7161 143.14 77.2294 143.14C77.7708 143.14 78.2468 143.238 78.6574 143.434C79.0774 143.621 79.4274 143.905 79.7074 144.288L78.7274 145.268C78.5314 145.025 78.3074 144.843 78.0554 144.722C77.8034 144.601 77.5141 144.54 77.1874 144.54C76.8794 144.54 76.6414 144.587 76.4734 144.68C76.3054 144.773 76.2214 144.909 76.2214 145.086C76.2214 145.273 76.3054 145.417 76.4734 145.52C76.6414 145.623 76.8561 145.711 77.1174 145.786C77.3881 145.861 77.6681 145.945 77.9574 146.038C78.2561 146.122 78.5361 146.243 78.7974 146.402C79.0681 146.551 79.2874 146.757 79.4554 147.018C79.6234 147.27 79.7074 147.601 79.7074 148.012C79.7074 148.665 79.4788 149.183 79.0214 149.566C78.5641 149.949 77.9434 150.14 77.1594 150.14ZM83.175 150.14C82.8017 150.14 82.4424 150.093 82.097 150C81.7517 149.897 81.4344 149.757 81.145 149.58C80.8557 149.393 80.6037 149.169 80.389 148.908L81.369 147.928C81.6024 148.199 81.8684 148.404 82.167 148.544C82.475 148.675 82.8204 148.74 83.203 148.74C83.5484 148.74 83.8097 148.689 83.987 148.586C84.1644 148.483 84.253 148.334 84.253 148.138C84.253 147.933 84.169 147.774 84.001 147.662C83.833 147.55 83.6137 147.457 83.343 147.382C83.0817 147.298 82.8017 147.214 82.503 147.13C82.2137 147.046 81.9337 146.934 81.663 146.794C81.4017 146.645 81.187 146.444 81.019 146.192C80.851 145.94 80.767 145.613 80.767 145.212C80.767 144.783 80.865 144.414 81.061 144.106C81.2664 143.798 81.551 143.56 81.915 143.392C82.2884 143.224 82.7317 143.14 83.245 143.14C83.7864 143.14 84.2624 143.238 84.673 143.434C85.093 143.621 85.443 143.905 85.723 144.288L84.743 145.268C84.547 145.025 84.323 144.843 84.071 144.722C83.819 144.601 83.5297 144.54 83.203 144.54C82.895 144.54 82.657 144.587 82.489 144.68C82.321 144.773 82.237 144.909 82.237 145.086C82.237 145.273 82.321 145.417 82.489 145.52C82.657 145.623 82.8717 145.711 83.133 145.786C83.4037 145.861 83.6837 145.945 83.973 146.038C84.2717 146.122 84.5517 146.243 84.813 146.402C85.0837 146.551 85.303 146.757 85.471 147.018C85.639 147.27 85.723 147.601 85.723 148.012C85.723 148.665 85.4944 149.183 85.037 149.566C84.5797 149.949 83.959 150.14 83.175 150.14ZM91.1114 146.304V144.904H93.5614C93.8974 144.904 94.1914 144.839 94.4434 144.708C94.7047 144.568 94.9101 144.377 95.0594 144.134C95.2087 143.882 95.2834 143.588 95.2834 143.252C95.2834 142.916 95.2087 142.627 95.0594 142.384C94.9101 142.132 94.7047 141.941 94.4434 141.81C94.1914 141.67 93.8974 141.6 93.5614 141.6H91.1114V140.2H93.6454C94.2614 140.2 94.8121 140.326 95.2974 140.578C95.7921 140.83 96.1794 141.185 96.4594 141.642C96.7487 142.099 96.8934 142.636 96.8934 143.252C96.8934 143.868 96.7487 144.405 96.4594 144.862C96.1794 145.319 95.7921 145.674 95.2974 145.926C94.8121 146.178 94.2614 146.304 93.6454 146.304H91.1114ZM90.0054 150V140.2H91.6154V150H90.0054ZM98.2446 150V143.28H99.7846V150H98.2446ZM99.7846 146.262L99.2526 145.996C99.2526 145.147 99.4393 144.461 99.8126 143.938C100.195 143.406 100.769 143.14 101.535 143.14C101.871 143.14 102.174 143.201 102.445 143.322C102.715 143.443 102.967 143.639 103.201 143.91L102.193 144.946C102.071 144.815 101.936 144.722 101.787 144.666C101.637 144.61 101.465 144.582 101.269 144.582C100.839 144.582 100.485 144.717 100.205 144.988C99.9246 145.259 99.7846 145.683 99.7846 146.262ZM106.821 150.14C106.167 150.14 105.575 149.986 105.043 149.678C104.511 149.361 104.086 148.936 103.769 148.404C103.461 147.872 103.307 147.279 103.307 146.626C103.307 145.973 103.461 145.385 103.769 144.862C104.086 144.339 104.511 143.924 105.043 143.616C105.575 143.299 106.167 143.14 106.821 143.14C107.483 143.14 108.081 143.294 108.613 143.602C109.145 143.91 109.565 144.33 109.873 144.862C110.19 145.385 110.349 145.973 110.349 146.626C110.349 147.279 110.19 147.872 109.873 148.404C109.565 148.936 109.145 149.361 108.613 149.678C108.081 149.986 107.483 150.14 106.821 150.14ZM106.821 148.656C107.203 148.656 107.539 148.572 107.829 148.404C108.127 148.227 108.356 147.984 108.515 147.676C108.683 147.368 108.767 147.018 108.767 146.626C108.767 146.234 108.683 145.889 108.515 145.59C108.347 145.291 108.118 145.058 107.829 144.89C107.539 144.713 107.203 144.624 106.821 144.624C106.447 144.624 106.111 144.713 105.813 144.89C105.523 145.058 105.295 145.291 105.127 145.59C104.968 145.889 104.889 146.234 104.889 146.626C104.889 147.018 104.968 147.368 105.127 147.676C105.295 147.984 105.523 148.227 105.813 148.404C106.111 148.572 106.447 148.656 106.821 148.656ZM110.957 152.94C110.481 152.94 110.094 152.865 109.795 152.716C109.487 152.567 109.207 152.347 108.955 152.058L109.949 151.064C110.061 151.213 110.187 151.321 110.327 151.386C110.467 151.461 110.64 151.498 110.845 151.498C111.097 151.498 111.312 151.419 111.489 151.26C111.676 151.111 111.769 150.887 111.769 150.588V143.28H113.309V150.574C113.309 151.087 113.197 151.517 112.973 151.862C112.759 152.217 112.474 152.483 112.119 152.66C111.765 152.847 111.377 152.94 110.957 152.94ZM112.567 142.048C112.306 142.048 112.087 141.959 111.909 141.782C111.741 141.605 111.657 141.385 111.657 141.124C111.657 140.863 111.741 140.643 111.909 140.466C112.087 140.289 112.306 140.2 112.567 140.2C112.838 140.2 113.057 140.289 113.225 140.466C113.393 140.643 113.477 140.863 113.477 141.124C113.477 141.385 113.393 141.605 113.225 141.782C113.057 141.959 112.838 142.048 112.567 142.048ZM118.142 150.14C117.47 150.14 116.863 149.991 116.322 149.692C115.79 149.384 115.365 148.964 115.048 148.432C114.74 147.9 114.586 147.303 114.586 146.64C114.586 145.977 114.74 145.385 115.048 144.862C115.356 144.33 115.771 143.91 116.294 143.602C116.826 143.294 117.414 143.14 118.058 143.14C118.683 143.14 119.234 143.285 119.71 143.574C120.195 143.863 120.573 144.26 120.844 144.764C121.124 145.268 121.264 145.842 121.264 146.486C121.264 146.598 121.255 146.715 121.236 146.836C121.227 146.948 121.208 147.074 121.18 147.214H115.664V145.954H120.382L119.808 146.458C119.789 146.047 119.71 145.702 119.57 145.422C119.43 145.142 119.229 144.927 118.968 144.778C118.716 144.629 118.403 144.554 118.03 144.554C117.638 144.554 117.297 144.638 117.008 144.806C116.719 144.974 116.495 145.212 116.336 145.52C116.177 145.819 116.098 146.178 116.098 146.598C116.098 147.018 116.182 147.387 116.35 147.704C116.518 148.021 116.756 148.269 117.064 148.446C117.372 148.614 117.727 148.698 118.128 148.698C118.473 148.698 118.791 148.637 119.08 148.516C119.379 148.395 119.631 148.217 119.836 147.984L120.816 148.978C120.489 149.361 120.093 149.65 119.626 149.846C119.159 150.042 118.665 150.14 118.142 150.14ZM125.593 150.14C124.93 150.14 124.328 149.986 123.787 149.678C123.255 149.37 122.835 148.95 122.527 148.418C122.219 147.886 122.065 147.293 122.065 146.64C122.065 145.977 122.219 145.385 122.527 144.862C122.835 144.33 123.255 143.91 123.787 143.602C124.328 143.294 124.93 143.14 125.593 143.14C126.115 143.14 126.601 143.243 127.049 143.448C127.506 143.644 127.893 143.929 128.211 144.302L127.203 145.324C127.007 145.091 126.769 144.918 126.489 144.806C126.218 144.685 125.919 144.624 125.593 144.624C125.21 144.624 124.869 144.713 124.571 144.89C124.281 145.058 124.053 145.291 123.885 145.59C123.726 145.889 123.647 146.239 123.647 146.64C123.647 147.032 123.726 147.382 123.885 147.69C124.053 147.989 124.281 148.227 124.571 148.404C124.869 148.572 125.21 148.656 125.593 148.656C125.919 148.656 126.218 148.6 126.489 148.488C126.769 148.367 127.007 148.189 127.203 147.956L128.211 148.978C127.893 149.351 127.506 149.641 127.049 149.846C126.601 150.042 126.115 150.14 125.593 150.14ZM130.233 150V140.48H131.773V150H130.233ZM128.623 144.68V143.28H133.383V144.68H128.623Z" fill="#9B9A9A"/>
</svg>
