<svg width="313" height="186" viewBox="0 0 313 186" fill="none" xmlns="http://www.w3.org/2000/svg">
<rect y="28" width="19" height="38" fill="#019ABA"/>
<rect y="70" width="19" height="82" fill="#1F1F21"/>
<path d="M9.294 182.14C8.51933 182.14 7.86133 182 7.32 181.72C6.77867 181.44 6.29333 181.029 5.864 180.488L6.956 179.396C7.22667 179.788 7.54867 180.096 7.922 180.32C8.29533 180.535 8.77133 180.642 9.35 180.642C9.89133 180.642 10.3207 180.53 10.638 180.306C10.9647 180.082 11.128 179.774 11.128 179.382C11.128 179.055 11.044 178.789 10.876 178.584C10.708 178.379 10.484 178.211 10.204 178.08C9.93333 177.94 9.63 177.819 9.294 177.716C8.96733 177.604 8.636 177.483 8.3 177.352C7.97333 177.212 7.67 177.039 7.39 176.834C7.11933 176.629 6.9 176.363 6.732 176.036C6.564 175.709 6.48 175.294 6.48 174.79C6.48 174.211 6.62 173.721 6.9 173.32C7.18933 172.909 7.57667 172.597 8.062 172.382C8.54733 172.167 9.08867 172.06 9.686 172.06C10.33 172.06 10.904 172.186 11.408 172.438C11.9213 172.69 12.3367 173.012 12.654 173.404L11.562 174.496C11.282 174.179 10.988 173.945 10.68 173.796C10.3813 173.637 10.036 173.558 9.644 173.558C9.15867 173.558 8.776 173.656 8.496 173.852C8.22533 174.048 8.09 174.323 8.09 174.678C8.09 174.977 8.174 175.219 8.342 175.406C8.51 175.583 8.72933 175.737 9 175.868C9.28 175.989 9.58333 176.106 9.91 176.218C10.246 176.33 10.5773 176.456 10.904 176.596C11.24 176.736 11.5433 176.918 11.814 177.142C12.094 177.357 12.318 177.637 12.486 177.982C12.654 178.327 12.738 178.761 12.738 179.284C12.738 180.161 12.4253 180.857 11.8 181.37C11.184 181.883 10.3487 182.14 9.294 182.14Z" fill="#B5B5B5"/>
<rect x="49" width="19" height="66" fill="#019ABA"/>
<rect x="49" y="72" width="19" height="82" fill="#1F1F21"/>
<path d="M53.564 182V172.2H54.684L58.758 178.906H58.03L62.104 172.2H63.224V182H61.614V175.028L61.978 175.126L58.954 180.096H57.834L54.81 175.126L55.174 175.028V182H53.564Z" fill="#B5B5B5"/>
<rect x="98" y="72" width="19" height="30" fill="#1E1E20"/>
<rect x="98" y="106" width="19" height="48" fill="#F1693F"/>
<path d="M106.528 182V172.48H108.138V182H106.528ZM103.336 173.67V172.2H111.33V173.67H103.336Z" fill="#B5B5B5"/>
<rect x="147" y="19" width="19" height="49" fill="#019ABA"/>
<rect x="147" y="72" width="19" height="82" fill="#1E1E20"/>
<path d="M153.084 182L149.864 172.2H151.446L153.868 179.746H153.448L155.814 172.2H156.934L159.3 179.746H158.88L161.302 172.2H162.884L159.664 182H158.544L156.164 174.468H156.584L154.204 182H153.084Z" fill="#B5B5B5"/>
<rect x="196" y="71" width="19" height="12" fill="#1E1E20"/>
<rect x="196" y="87" width="19" height="67" fill="#F1693F"/>
<path d="M204.528 182V172.48H206.138V182H204.528ZM201.336 173.67V172.2H209.33V173.67H201.336Z" fill="#B5B5B5"/>
<rect x="245" y="39" width="19" height="29" fill="#019ABA"/>
<rect x="245" y="72" width="19" height="82" fill="#1E1E20"/>
<path d="M251.564 182V172.2H253.174V182H251.564ZM252.67 177.8V176.33H257.654V177.8H252.67ZM252.67 173.67V172.2H257.892V173.67H252.67Z" fill="#B5B5B5"/>
<rect x="294" y="73" width="19" height="33" fill="#1E1E20"/>
<rect x="294" y="110" width="19" height="44" fill="#F1693F"/>
<path d="M303.294 182.14C302.519 182.14 301.861 182 301.32 181.72C300.779 181.44 300.293 181.029 299.864 180.488L300.956 179.396C301.227 179.788 301.549 180.096 301.922 180.32C302.295 180.535 302.771 180.642 303.35 180.642C303.891 180.642 304.321 180.53 304.638 180.306C304.965 180.082 305.128 179.774 305.128 179.382C305.128 179.055 305.044 178.789 304.876 178.584C304.708 178.379 304.484 178.211 304.204 178.08C303.933 177.94 303.63 177.819 303.294 177.716C302.967 177.604 302.636 177.483 302.3 177.352C301.973 177.212 301.67 177.039 301.39 176.834C301.119 176.629 300.9 176.363 300.732 176.036C300.564 175.709 300.48 175.294 300.48 174.79C300.48 174.211 300.62 173.721 300.9 173.32C301.189 172.909 301.577 172.597 302.062 172.382C302.547 172.167 303.089 172.06 303.686 172.06C304.33 172.06 304.904 172.186 305.408 172.438C305.921 172.69 306.337 173.012 306.654 173.404L305.562 174.496C305.282 174.179 304.988 173.945 304.68 173.796C304.381 173.637 304.036 173.558 303.644 173.558C303.159 173.558 302.776 173.656 302.496 173.852C302.225 174.048 302.09 174.323 302.09 174.678C302.09 174.977 302.174 175.219 302.342 175.406C302.51 175.583 302.729 175.737 303 175.868C303.28 175.989 303.583 176.106 303.91 176.218C304.246 176.33 304.577 176.456 304.904 176.596C305.24 176.736 305.543 176.918 305.814 177.142C306.094 177.357 306.318 177.637 306.486 177.982C306.654 178.327 306.738 178.761 306.738 179.284C306.738 180.161 306.425 180.857 305.8 181.37C305.184 181.883 304.349 182.14 303.294 182.14Z" fill="#B5B5B5"/>
</svg>
