<svg width="178" height="184" viewBox="0 0 178 184" fill="none" xmlns="http://www.w3.org/2000/svg">
<rect width="178" height="184" fill="#009ABC"/>
<path d="M131.5 40.5L59 168.5L85 0H103.5L131.5 40.5Z" fill="#0095B6"/>
<path d="M150.656 18L59 184L177 76.7702V49.9627L150.656 18Z" fill="#0095B6"/>
<path d="M178 92L78 184H178V92Z" fill="#0095B6"/>
<rect width="32" height="32" transform="translate(17 14)" fill="#35ACC7"/>
<path d="M40.7778 22H39.6667V20H37.4444V22H28.5556V20H26.3333V22H25.2222C23.9889 22 23.0111 22.9 23.0111 24L23 38C23 39.1 23.9889 40 25.2222 40H40.7778C42 40 43 39.1 43 38V24C43 22.9 42 22 40.7778 22ZM40.7778 38H25.2222V28H40.7778V38ZM40.7778 26H25.2222V24H40.7778V26ZM33 31H38.5556V36H33V31Z" fill="white"/>
<path d="M154.013 29H139V31H154.013V34L159 30L154.013 26V29Z" fill="white"/>
<path d="M23.576 126.24C22.424 126.24 21.424 126.032 20.576 125.616C19.728 125.2 19.064 124.624 18.584 123.888C18.12 123.136 17.888 122.288 17.888 121.344C17.888 120.592 18.032 119.904 18.32 119.28C18.624 118.64 19.056 118.096 19.616 117.648C20.192 117.2 20.872 116.88 21.656 116.688L21.584 117.456C20.944 117.28 20.4 116.992 19.952 116.592C19.52 116.192 19.192 115.72 18.968 115.176C18.744 114.632 18.632 114.064 18.632 113.472C18.632 112.576 18.84 111.792 19.256 111.12C19.688 110.432 20.28 109.896 21.032 109.512C21.784 109.128 22.632 108.936 23.576 108.936C24.536 108.936 25.384 109.128 26.12 109.512C26.872 109.896 27.456 110.432 27.872 111.12C28.304 111.792 28.52 112.576 28.52 113.472C28.52 114.064 28.408 114.632 28.184 115.176C27.96 115.72 27.632 116.192 27.2 116.592C26.768 116.992 26.224 117.28 25.568 117.456L25.496 116.688C26.296 116.88 26.976 117.2 27.536 117.648C28.096 118.096 28.52 118.64 28.808 119.28C29.112 119.904 29.264 120.592 29.264 121.344C29.264 122.288 29.032 123.136 28.568 123.888C28.104 124.624 27.44 125.2 26.576 125.616C25.728 126.032 24.728 126.24 23.576 126.24ZM23.576 123.744C24.168 123.744 24.688 123.624 25.136 123.384C25.6 123.144 25.96 122.816 26.216 122.4C26.488 121.984 26.624 121.512 26.624 120.984C26.624 120.44 26.488 119.968 26.216 119.568C25.96 119.152 25.6 118.824 25.136 118.584C24.688 118.344 24.168 118.224 23.576 118.224C22.984 118.224 22.456 118.344 21.992 118.584C21.544 118.824 21.184 119.152 20.912 119.568C20.656 119.968 20.528 120.44 20.528 120.984C20.528 121.512 20.656 121.984 20.912 122.4C21.184 122.816 21.544 123.144 21.992 123.384C22.456 123.624 22.984 123.744 23.576 123.744ZM23.576 116.064C24.28 116.064 24.856 115.84 25.304 115.392C25.752 114.944 25.976 114.368 25.976 113.664C25.976 112.96 25.752 112.392 25.304 111.96C24.856 111.512 24.28 111.288 23.576 111.288C22.888 111.288 22.312 111.512 21.848 111.96C21.4 112.392 21.176 112.96 21.176 113.664C21.176 114.368 21.4 114.944 21.848 115.392C22.312 115.84 22.888 116.064 23.576 116.064ZM36.8924 126.24C35.7724 126.24 34.7644 125.984 33.8684 125.472C32.9724 124.944 32.2604 124.24 31.7324 123.36C31.2204 122.48 30.9644 121.504 30.9644 120.432C30.9644 118.896 31.5004 117.344 32.5724 115.776L37.1564 109.2H40.3484L35.4524 116.088L34.4444 116.688C34.6044 116.32 34.8044 116.008 35.0444 115.752C35.3004 115.48 35.6284 115.272 36.0284 115.128C36.4444 114.984 36.9564 114.912 37.5644 114.912C38.5404 114.912 39.4204 115.144 40.2044 115.608C41.0044 116.056 41.6444 116.688 42.1244 117.504C42.6044 118.304 42.8444 119.248 42.8444 120.336C42.8444 121.424 42.5804 122.416 42.0524 123.312C41.5244 124.208 40.8044 124.92 39.8924 125.448C38.9964 125.976 37.9964 126.24 36.8924 126.24ZM36.8924 123.648C37.5004 123.648 38.0444 123.504 38.5244 123.216C39.0044 122.928 39.3804 122.536 39.6524 122.04C39.9404 121.528 40.0844 120.96 40.0844 120.336C40.0844 119.712 39.9404 119.152 39.6524 118.656C39.3804 118.16 39.0044 117.776 38.5244 117.504C38.0444 117.216 37.5004 117.072 36.8924 117.072C36.2844 117.072 35.7404 117.216 35.2604 117.504C34.7804 117.792 34.4044 118.184 34.1324 118.68C33.8604 119.16 33.7244 119.712 33.7244 120.336C33.7244 120.96 33.8604 121.528 34.1324 122.04C34.4044 122.536 34.7804 122.928 35.2604 123.216C35.7404 123.504 36.2844 123.648 36.8924 123.648Z" fill="white"/>
<path d="M19.17 146.304V144.904H21.62C21.956 144.904 22.25 144.839 22.502 144.708C22.7633 144.568 22.9687 144.377 23.118 144.134C23.2673 143.882 23.342 143.588 23.342 143.252C23.342 142.916 23.2673 142.627 23.118 142.384C22.9687 142.132 22.7633 141.941 22.502 141.81C22.25 141.67 21.956 141.6 21.62 141.6H19.17V140.2H21.704C22.32 140.2 22.8707 140.326 23.356 140.578C23.8507 140.83 24.238 141.185 24.518 141.642C24.8073 142.099 24.952 142.636 24.952 143.252C24.952 143.868 24.8073 144.405 24.518 144.862C24.238 145.319 23.8507 145.674 23.356 145.926C22.8707 146.178 22.32 146.304 21.704 146.304H19.17ZM18.064 150V140.2H19.674V150H18.064ZM26.3032 150V143.28H27.8432V150H26.3032ZM27.8432 146.262L27.3112 145.996C27.3112 145.147 27.4979 144.461 27.8712 143.938C28.2539 143.406 28.8279 143.14 29.5932 143.14C29.9292 143.14 30.2326 143.201 30.5032 143.322C30.7739 143.443 31.0259 143.639 31.2592 143.91L30.2512 144.946C30.1299 144.815 29.9946 144.722 29.8452 144.666C29.6959 144.61 29.5232 144.582 29.3272 144.582C28.8979 144.582 28.5432 144.717 28.2632 144.988C27.9832 145.259 27.8432 145.683 27.8432 146.262ZM34.8793 150.14C34.226 150.14 33.6333 149.986 33.1013 149.678C32.5693 149.361 32.1446 148.936 31.8273 148.404C31.5193 147.872 31.3653 147.279 31.3653 146.626C31.3653 145.973 31.5193 145.385 31.8273 144.862C32.1446 144.339 32.5693 143.924 33.1013 143.616C33.6333 143.299 34.226 143.14 34.8793 143.14C35.542 143.14 36.1393 143.294 36.6713 143.602C37.2033 143.91 37.6233 144.33 37.9313 144.862C38.2486 145.385 38.4073 145.973 38.4073 146.626C38.4073 147.279 38.2486 147.872 37.9313 148.404C37.6233 148.936 37.2033 149.361 36.6713 149.678C36.1393 149.986 35.542 150.14 34.8793 150.14ZM34.8793 148.656C35.262 148.656 35.598 148.572 35.8873 148.404C36.186 148.227 36.4146 147.984 36.5733 147.676C36.7413 147.368 36.8253 147.018 36.8253 146.626C36.8253 146.234 36.7413 145.889 36.5733 145.59C36.4053 145.291 36.1766 145.058 35.8873 144.89C35.598 144.713 35.262 144.624 34.8793 144.624C34.506 144.624 34.17 144.713 33.8713 144.89C33.582 145.058 33.3533 145.291 33.1853 145.59C33.0266 145.889 32.9473 146.234 32.9473 146.626C32.9473 147.018 33.0266 147.368 33.1853 147.676C33.3533 147.984 33.582 148.227 33.8713 148.404C34.17 148.572 34.506 148.656 34.8793 148.656ZM39.016 152.94C38.54 152.94 38.1527 152.865 37.854 152.716C37.546 152.567 37.266 152.347 37.014 152.058L38.008 151.064C38.12 151.213 38.246 151.321 38.386 151.386C38.526 151.461 38.6987 151.498 38.904 151.498C39.156 151.498 39.3707 151.419 39.548 151.26C39.7347 151.111 39.828 150.887 39.828 150.588V143.28H41.368V150.574C41.368 151.087 41.256 151.517 41.032 151.862C40.8173 152.217 40.5327 152.483 40.178 152.66C39.8233 152.847 39.436 152.94 39.016 152.94ZM40.626 142.048C40.3647 142.048 40.1453 141.959 39.968 141.782C39.8 141.605 39.716 141.385 39.716 141.124C39.716 140.863 39.8 140.643 39.968 140.466C40.1453 140.289 40.3647 140.2 40.626 140.2C40.8967 140.2 41.116 140.289 41.284 140.466C41.452 140.643 41.536 140.863 41.536 141.124C41.536 141.385 41.452 141.605 41.284 141.782C41.116 141.959 40.8967 142.048 40.626 142.048ZM46.2006 150.14C45.5286 150.14 44.9219 149.991 44.3806 149.692C43.8486 149.384 43.4239 148.964 43.1066 148.432C42.7986 147.9 42.6446 147.303 42.6446 146.64C42.6446 145.977 42.7986 145.385 43.1066 144.862C43.4146 144.33 43.8299 143.91 44.3526 143.602C44.8846 143.294 45.4726 143.14 46.1166 143.14C46.7419 143.14 47.2926 143.285 47.7686 143.574C48.2539 143.863 48.6319 144.26 48.9026 144.764C49.1826 145.268 49.3226 145.842 49.3226 146.486C49.3226 146.598 49.3133 146.715 49.2946 146.836C49.2853 146.948 49.2666 147.074 49.2386 147.214H43.7226V145.954H48.4406L47.8666 146.458C47.8479 146.047 47.7686 145.702 47.6286 145.422C47.4886 145.142 47.2879 144.927 47.0266 144.778C46.7746 144.629 46.4619 144.554 46.0886 144.554C45.6966 144.554 45.3559 144.638 45.0666 144.806C44.7773 144.974 44.5533 145.212 44.3946 145.52C44.2359 145.819 44.1566 146.178 44.1566 146.598C44.1566 147.018 44.2406 147.387 44.4086 147.704C44.5766 148.021 44.8146 148.269 45.1226 148.446C45.4306 148.614 45.7853 148.698 46.1866 148.698C46.5319 148.698 46.8493 148.637 47.1386 148.516C47.4373 148.395 47.6893 148.217 47.8946 147.984L48.8746 148.978C48.5479 149.361 48.1513 149.65 47.6846 149.846C47.2179 150.042 46.7233 150.14 46.2006 150.14ZM53.6511 150.14C52.9885 150.14 52.3865 149.986 51.8451 149.678C51.3131 149.37 50.8931 148.95 50.5851 148.418C50.2771 147.886 50.1231 147.293 50.1231 146.64C50.1231 145.977 50.2771 145.385 50.5851 144.862C50.8931 144.33 51.3131 143.91 51.8451 143.602C52.3865 143.294 52.9885 143.14 53.6511 143.14C54.1738 143.14 54.6591 143.243 55.1071 143.448C55.5645 143.644 55.9518 143.929 56.2691 144.302L55.2611 145.324C55.0651 145.091 54.8271 144.918 54.5471 144.806C54.2765 144.685 53.9778 144.624 53.6511 144.624C53.2685 144.624 52.9278 144.713 52.6291 144.89C52.3398 145.058 52.1111 145.291 51.9431 145.59C51.7845 145.889 51.7051 146.239 51.7051 146.64C51.7051 147.032 51.7845 147.382 51.9431 147.69C52.1111 147.989 52.3398 148.227 52.6291 148.404C52.9278 148.572 53.2685 148.656 53.6511 148.656C53.9778 148.656 54.2765 148.6 54.5471 148.488C54.8271 148.367 55.0651 148.189 55.2611 147.956L56.2691 148.978C55.9518 149.351 55.5645 149.641 55.1071 149.846C54.6591 150.042 54.1738 150.14 53.6511 150.14ZM58.292 150V140.48H59.832V150H58.292ZM56.682 144.68V143.28H61.442V144.68H56.682ZM70.0258 150.14C69.3164 150.14 68.6584 150.014 68.0518 149.762C67.4544 149.501 66.9318 149.141 66.4838 148.684C66.0358 148.217 65.6904 147.681 65.4478 147.074C65.2051 146.458 65.0838 145.8 65.0838 145.1C65.0838 144.4 65.2051 143.747 65.4478 143.14C65.6904 142.524 66.0358 141.987 66.4838 141.53C66.9318 141.073 67.4544 140.713 68.0518 140.452C68.6584 140.191 69.3164 140.06 70.0258 140.06C70.8191 140.06 71.5051 140.191 72.0838 140.452C72.6624 140.713 73.1758 141.068 73.6238 141.516L72.5318 142.608C72.2424 142.291 71.8878 142.043 71.4678 141.866C71.0571 141.689 70.5764 141.6 70.0258 141.6C69.5404 141.6 69.0971 141.684 68.6958 141.852C68.2944 142.02 67.9444 142.263 67.6458 142.58C67.3564 142.888 67.1324 143.257 66.9738 143.686C66.8151 144.115 66.7358 144.587 66.7358 145.1C66.7358 145.613 66.8151 146.085 66.9738 146.514C67.1324 146.943 67.3564 147.317 67.6458 147.634C67.9444 147.942 68.2944 148.18 68.6958 148.348C69.0971 148.516 69.5404 148.6 70.0258 148.6C70.6231 148.6 71.1271 148.511 71.5378 148.334C71.9578 148.147 72.3124 147.895 72.6018 147.578L73.6938 148.67C73.2458 149.127 72.7184 149.487 72.1118 149.748C71.5051 150.009 70.8098 150.14 70.0258 150.14ZM77.7953 150.14C77.142 150.14 76.5493 149.986 76.0173 149.678C75.4853 149.361 75.0607 148.936 74.7433 148.404C74.4353 147.872 74.2813 147.279 74.2813 146.626C74.2813 145.973 74.4353 145.385 74.7433 144.862C75.0607 144.339 75.4853 143.924 76.0173 143.616C76.5493 143.299 77.142 143.14 77.7953 143.14C78.458 143.14 79.0553 143.294 79.5873 143.602C80.1193 143.91 80.5393 144.33 80.8473 144.862C81.1647 145.385 81.3233 145.973 81.3233 146.626C81.3233 147.279 81.1647 147.872 80.8473 148.404C80.5393 148.936 80.1193 149.361 79.5873 149.678C79.0553 149.986 78.458 150.14 77.7953 150.14ZM77.7953 148.656C78.178 148.656 78.514 148.572 78.8033 148.404C79.102 148.227 79.3307 147.984 79.4893 147.676C79.6573 147.368 79.7413 147.018 79.7413 146.626C79.7413 146.234 79.6573 145.889 79.4893 145.59C79.3213 145.291 79.0927 145.058 78.8033 144.89C78.514 144.713 78.178 144.624 77.7953 144.624C77.422 144.624 77.086 144.713 76.7873 144.89C76.498 145.058 76.2693 145.291 76.1013 145.59C75.9427 145.889 75.8633 146.234 75.8633 146.626C75.8633 147.018 75.9427 147.368 76.1013 147.676C76.2693 147.984 76.498 148.227 76.7873 148.404C77.086 148.572 77.422 148.656 77.7953 148.656ZM82.604 150V143.28H84.144V150H82.604ZM87.07 150V145.996C87.07 145.548 86.93 145.203 86.65 144.96C86.37 144.708 86.0247 144.582 85.614 144.582C85.334 144.582 85.082 144.638 84.858 144.75C84.6433 144.862 84.4707 145.025 84.34 145.24C84.2093 145.445 84.144 145.697 84.144 145.996L83.542 145.66C83.542 145.147 83.654 144.703 83.878 144.33C84.102 143.957 84.4053 143.667 84.788 143.462C85.1707 143.247 85.6 143.14 86.076 143.14C86.552 143.14 86.9813 143.243 87.364 143.448C87.7467 143.653 88.05 143.943 88.274 144.316C88.498 144.689 88.61 145.137 88.61 145.66V150H87.07ZM91.536 150V145.996C91.536 145.548 91.396 145.203 91.116 144.96C90.836 144.708 90.4907 144.582 90.08 144.582C89.8093 144.582 89.562 144.638 89.338 144.75C89.114 144.862 88.9367 145.025 88.806 145.24C88.6753 145.445 88.61 145.697 88.61 145.996L87.742 145.66C87.7887 145.147 87.938 144.703 88.19 144.33C88.442 143.957 88.764 143.667 89.156 143.462C89.5573 143.247 89.996 143.14 90.472 143.14C90.9573 143.14 91.396 143.243 91.788 143.448C92.18 143.653 92.4927 143.943 92.726 144.316C92.9593 144.689 93.076 145.137 93.076 145.66V150H91.536ZM98.2606 150.14C97.7473 150.14 97.2899 150.033 96.8886 149.818C96.4873 149.594 96.1699 149.291 95.9366 148.908C95.7126 148.525 95.6006 148.091 95.6006 147.606V145.674C95.6006 145.189 95.7173 144.755 95.9506 144.372C96.1839 143.989 96.5013 143.691 96.9026 143.476C97.3039 143.252 97.7566 143.14 98.2606 143.14C98.8673 143.14 99.4133 143.299 99.8986 143.616C100.393 143.924 100.781 144.344 101.061 144.876C101.35 145.399 101.495 145.991 101.495 146.654C101.495 147.307 101.35 147.9 101.061 148.432C100.781 148.955 100.393 149.37 99.8986 149.678C99.4133 149.986 98.8673 150.14 98.2606 150.14ZM98.0086 148.684C98.3819 148.684 98.7086 148.6 98.9886 148.432C99.2779 148.255 99.5019 148.012 99.6606 147.704C99.8286 147.396 99.9126 147.041 99.9126 146.64C99.9126 146.239 99.8286 145.884 99.6606 145.576C99.5019 145.268 99.2779 145.03 98.9886 144.862C98.7086 144.685 98.3819 144.596 98.0086 144.596C97.6353 144.596 97.3039 144.685 97.0146 144.862C96.7253 145.03 96.5013 145.268 96.3426 145.576C96.1839 145.884 96.1046 146.239 96.1046 146.64C96.1046 147.041 96.1839 147.396 96.3426 147.704C96.5013 148.012 96.7253 148.255 97.0146 148.432C97.3039 148.6 97.6353 148.684 98.0086 148.684ZM94.6626 152.8V143.28H96.2026V145.086L95.9366 146.724L96.2026 148.348V152.8H94.6626ZM102.784 150V139.92H104.324V150H102.784ZM109.16 150.14C108.488 150.14 107.881 149.991 107.34 149.692C106.808 149.384 106.383 148.964 106.066 148.432C105.758 147.9 105.604 147.303 105.604 146.64C105.604 145.977 105.758 145.385 106.066 144.862C106.374 144.33 106.789 143.91 107.312 143.602C107.844 143.294 108.432 143.14 109.076 143.14C109.701 143.14 110.252 143.285 110.728 143.574C111.213 143.863 111.591 144.26 111.862 144.764C112.142 145.268 112.282 145.842 112.282 146.486C112.282 146.598 112.272 146.715 112.254 146.836C112.244 146.948 112.226 147.074 112.198 147.214H106.682V145.954H111.4L110.826 146.458C110.807 146.047 110.728 145.702 110.588 145.422C110.448 145.142 110.247 144.927 109.986 144.778C109.734 144.629 109.421 144.554 109.048 144.554C108.656 144.554 108.315 144.638 108.026 144.806C107.736 144.974 107.512 145.212 107.354 145.52C107.195 145.819 107.116 146.178 107.116 146.598C107.116 147.018 107.2 147.387 107.368 147.704C107.536 148.021 107.774 148.269 108.082 148.446C108.39 148.614 108.744 148.698 109.146 148.698C109.491 148.698 109.808 148.637 110.098 148.516C110.396 148.395 110.648 148.217 110.854 147.984L111.834 148.978C111.507 149.361 111.11 149.65 110.644 149.846C110.177 150.042 109.682 150.14 109.16 150.14ZM114.36 150V140.48H115.9V150H114.36ZM112.75 144.68V143.28H117.51V144.68H112.75ZM121.56 150.14C120.888 150.14 120.281 149.991 119.74 149.692C119.208 149.384 118.783 148.964 118.466 148.432C118.158 147.9 118.004 147.303 118.004 146.64C118.004 145.977 118.158 145.385 118.466 144.862C118.774 144.33 119.189 143.91 119.712 143.602C120.244 143.294 120.832 143.14 121.476 143.14C122.101 143.14 122.652 143.285 123.128 143.574C123.613 143.863 123.991 144.26 124.262 144.764C124.542 145.268 124.682 145.842 124.682 146.486C124.682 146.598 124.673 146.715 124.654 146.836C124.645 146.948 124.626 147.074 124.598 147.214H119.082V145.954H123.8L123.226 146.458C123.207 146.047 123.128 145.702 122.988 145.422C122.848 145.142 122.647 144.927 122.386 144.778C122.134 144.629 121.821 144.554 121.448 144.554C121.056 144.554 120.715 144.638 120.426 144.806C120.137 144.974 119.913 145.212 119.754 145.52C119.595 145.819 119.516 146.178 119.516 146.598C119.516 147.018 119.6 147.387 119.768 147.704C119.936 148.021 120.174 148.269 120.482 148.446C120.79 148.614 121.145 148.698 121.546 148.698C121.891 148.698 122.209 148.637 122.498 148.516C122.797 148.395 123.049 148.217 123.254 147.984L124.234 148.978C123.907 149.361 123.511 149.65 123.044 149.846C122.577 150.042 122.083 150.14 121.56 150.14ZM128.731 150.14C128.124 150.14 127.573 149.986 127.079 149.678C126.593 149.37 126.206 148.955 125.917 148.432C125.637 147.9 125.497 147.307 125.497 146.654C125.497 145.991 125.637 145.399 125.917 144.876C126.206 144.344 126.593 143.924 127.079 143.616C127.573 143.299 128.124 143.14 128.731 143.14C129.244 143.14 129.697 143.252 130.089 143.476C130.49 143.691 130.807 143.989 131.041 144.372C131.274 144.755 131.391 145.189 131.391 145.674V147.606C131.391 148.091 131.274 148.525 131.041 148.908C130.817 149.291 130.504 149.594 130.103 149.818C129.701 150.033 129.244 150.14 128.731 150.14ZM128.983 148.684C129.365 148.684 129.697 148.6 129.977 148.432C130.266 148.255 130.49 148.012 130.649 147.704C130.807 147.396 130.887 147.041 130.887 146.64C130.887 146.239 130.807 145.884 130.649 145.576C130.49 145.268 130.266 145.03 129.977 144.862C129.697 144.685 129.365 144.596 128.983 144.596C128.609 144.596 128.278 144.685 127.989 144.862C127.709 145.03 127.485 145.268 127.317 145.576C127.158 145.884 127.079 146.239 127.079 146.64C127.079 147.041 127.158 147.396 127.317 147.704C127.485 148.012 127.709 148.255 127.989 148.432C128.278 148.6 128.609 148.684 128.983 148.684ZM132.329 150H130.789V148.194L131.055 146.556L130.789 144.932V139.92H132.329V150Z" fill="#BEBBBB"/>
</svg>
