<svg width="24" height="24" viewBox="0 0 24 24" fill="none" xmlns="http://www.w3.org/2000/svg">
<path d="M7.36027 2.07088C6.72741 2.27178 6.23311 2.87448 6.0646 3.63789C5.97847 4.02183 5.97847 19.9776 6.0646 20.3616C6.23311 21.1339 6.73116 21.7321 7.37525 21.933C7.67483 22.0223 8.53612 22.0223 8.8357 21.933C9.47979 21.7321 9.97784 21.1339 10.1464 20.3616C10.2325 19.9776 10.2325 4.02183 10.1464 3.63789C9.97784 2.86555 9.47979 2.26732 8.8357 2.06642C8.54361 1.97713 7.64487 1.97713 7.36027 2.07088Z" fill="black"/>
<path d="M15.1493 2.07088C14.5165 2.27178 14.0222 2.87448 13.8537 3.63789C13.7675 4.02183 13.7675 19.9776 13.8537 20.3616C14.0222 21.1339 14.5202 21.7321 15.1643 21.933C15.4639 22.0223 16.3252 22.0223 16.6248 21.933C17.2689 21.7321 17.7669 21.1339 17.9354 20.3616C18.0215 19.9776 18.0215 4.02183 17.9354 3.63789C17.7669 2.86555 17.2689 2.26732 16.6248 2.06642C16.3327 1.97713 15.4339 1.97713 15.1493 2.07088Z" fill="black"/>
</svg>
