<svg width="24" height="24" viewBox="0 0 24 24" fill="none" xmlns="http://www.w3.org/2000/svg">
<path d="M5.43422 3.06373C3.64036 3.40959 2.28812 4.93822 2.03408 6.90665C2.00282 7.14577 1.995 8.43101 2.00282 11.1766L2.01845 15.1049L2.10834 15.4636C2.48353 16.9452 3.41368 18.0682 4.67212 18.5635C4.84017 18.6318 5.01604 18.8026 5.92275 19.7847C6.68094 20.6045 7.00923 20.9333 7.09521 20.9547C7.16165 20.9717 7.23199 20.9888 7.25935 20.9974C7.2828 21.0059 7.37269 20.9931 7.45476 20.9675C7.57592 20.9333 7.78696 20.7241 8.56078 19.8829L9.5222 18.8411H13.7079C16.3225 18.8411 18.0421 18.824 18.2883 18.7984C19.4608 18.666 20.4691 18.0426 21.1921 17.005C21.4539 16.6292 21.7471 15.9631 21.876 15.4465L21.9855 15.0195L21.9972 11.1339C22.005 8.42674 21.9972 7.14577 21.9659 6.90665C21.708 4.89979 20.2971 3.34554 18.4603 3.04665C18.0147 2.97406 5.81722 2.99114 5.43422 3.06373ZM18.6244 4.37032C18.7338 4.40875 18.9175 4.48561 19.0348 4.53685C19.7148 4.85282 20.3167 5.51466 20.6059 6.26616C20.8208 6.82125 20.813 6.68462 20.813 10.9631V14.9341L20.7075 15.2757C20.3518 16.4072 19.6054 17.1587 18.5267 17.4832C18.3938 17.5217 17.1901 17.5387 13.7001 17.5558L9.0454 17.5814L8.89298 17.7181C8.807 17.7907 8.41227 18.2091 8.01363 18.6446L7.29452 19.4388L6.41127 18.4867C5.91102 17.9401 5.48112 17.5131 5.41468 17.4875C5.35215 17.4619 5.188 17.3978 5.05122 17.3466C4.21095 17.0178 3.5661 16.2578 3.27689 15.2543L3.187 14.9341V10.9631C3.187 6.68034 3.17919 6.82125 3.39414 6.26616C3.7576 5.32678 4.58614 4.5582 5.43422 4.37032C5.55147 4.3447 5.68435 4.31481 5.72734 4.30627C5.77033 4.29773 8.64676 4.29346 12.1172 4.29773C17.7451 4.302 18.4485 4.31054 18.6244 4.37032Z" fill="#9B9A9A"/>
<path d="M8.01285 9.22557C7.59467 9.45188 7.59467 10.1009 8.01285 10.3315L8.18481 10.4297H11.9992H15.8136L15.9856 10.3315C16.4038 10.1009 16.4038 9.45188 15.9856 9.22557C15.8566 9.15298 15.5869 9.14871 11.9992 9.14871C8.41149 9.14871 8.14182 9.15298 8.01285 9.22557Z" fill="#9B9A9A"/>
<path d="M8.01285 11.4883C7.59467 11.7146 7.59467 12.3636 8.01285 12.5942L8.18481 12.6924H11.9992H15.8136L15.9856 12.5942C16.4038 12.3636 16.4038 11.7146 15.9856 11.4883C15.8566 11.4157 15.5869 11.4114 11.9992 11.4114C8.41149 11.4114 8.14182 11.4157 8.01285 11.4883Z" fill="#9B9A9A"/>
</svg>
