<svg width="24" height="24" viewBox="0 0 24 24" fill="none" xmlns="http://www.w3.org/2000/svg">
<path d="M4.52105 2.03027C4.45782 2.04198 4.4025 2.06929 4.40645 2.08879C4.41435 2.13951 13.0923 11.081 13.1239 11.0732C13.1437 11.0693 13.4993 10.7104 13.9142 10.2813C14.3331 9.84826 14.9852 9.17726 15.3606 8.79104L16.0403 8.08883L10.9584 5.19414C8.16057 3.59855 5.77374 2.24874 5.65124 2.19022C5.29163 2.01857 4.86485 1.95615 4.52105 2.03027Z" fill="#9B9A9A"/>
<path d="M3.27662 2.85357C3.2292 2.92379 3.14621 3.09544 3.09484 3.23589L3 3.49727V11.9824C3 18.0292 3.01186 20.5104 3.04347 20.6235C3.09879 20.8225 3.28057 21.1931 3.31614 21.1814C3.36751 21.158 12.2667 11.9746 12.2667 11.9433C12.2667 11.9238 10.3186 9.90693 7.93963 7.45698C5.5607 5.01093 3.55719 2.9433 3.49001 2.86917L3.36356 2.73263L3.27662 2.85357Z" fill="#9B9A9A"/>
<path d="M15.5142 10.3248L13.9414 11.9438L15.3917 13.434C16.1899 14.2572 16.917 15.0062 17.0079 15.0998L17.1739 15.2676L18.7111 14.3976C20.4617 13.4028 20.6 13.2975 20.8529 12.7747C20.9952 12.4743 20.9991 12.4626 20.9991 12.0023C20.9991 11.5419 20.9952 11.5302 20.8529 11.2298C20.5961 10.7032 20.4657 10.6057 18.6834 9.59134C17.822 9.10369 17.1146 8.70577 17.1028 8.70577C17.0949 8.70577 16.3796 9.4353 15.5142 10.3248Z" fill="#9B9A9A"/>
<path d="M8.68168 17.3585L4.26367 21.9112L4.45335 21.958C4.72207 22.0205 5.03425 22.0127 5.33063 21.9385C5.53612 21.8839 6.62284 21.2831 10.784 18.9112C13.6411 17.2844 16.0081 15.9307 16.0437 15.9073C16.099 15.8722 15.8817 15.6303 14.629 14.3429C13.8189 13.5042 13.1392 12.8175 13.1234 12.8136C13.1076 12.8097 11.108 14.8579 8.68168 17.3585Z" fill="#9B9A9A"/>
</svg>
