<svg width="24" height="24" viewBox="0 0 24 24" fill="none" xmlns="http://www.w3.org/2000/svg">
<path d="M3 10C2.45 10.55 2 11.45 2 12C2 13.3 3.7 15 5 15C6.3 15 8 13.3 8 12C8 10.7 6.3 9 5 9C4.45 9 3.55 9.45 3 10ZM6.25 12C6.25 12.9 5.95 13.3 5.1 13.4C4.45 13.5 3.85 13.25 3.7 12.8C3.2 11.5 3.9 10.4 5.1 10.6C5.95 10.7 6.25 11.1 6.25 12Z" fill="#9B9A9A"/>
<path d="M10 10C9.45 10.55 9 11.45 9 12C9 13.3 10.7 15 12 15C13.3 15 15 13.3 15 12C15 11.45 14.55 10.55 14 10C13.45 9.45 12.55 9 12 9C11.45 9 10.55 9.45 10 10ZM13.25 12C13.25 12.9 12.95 13.3 12.1 13.4C11.45 13.5 10.85 13.25 10.7 12.8C10.2 11.5 10.9 10.4 12.1 10.6C12.95 10.7 13.25 11.1 13.25 12Z" fill="#9B9A9A"/>
<path d="M17 10C16.45 10.55 16 11.45 16 12C16 12.55 16.45 13.45 17 14C17.55 14.55 18.45 15 19 15C20.3 15 22 13.3 22 12C22 11.45 21.55 10.55 21 10C20.45 9.45 19.55 9 19 9C18.45 9 17.55 9.45 17 10ZM20.25 12C20.25 12.9 19.95 13.3 19.1 13.4C18.45 13.5 17.85 13.25 17.7 12.8C17.2 11.5 17.9 10.4 19.1 10.6C19.95 10.7 20.25 11.1 20.25 12Z" fill="#9B9A9A"/>
</svg>
