<svg width="24" height="24" viewBox="0 0 24 24" fill="none" xmlns="http://www.w3.org/2000/svg">
<path d="M2.52983 7.08211C2.14917 7.23286 1.93327 7.62793 2.0185 8.03339C2.05259 8.21013 2.58665 8.71436 6.80801 12.5818C11.0351 16.4441 11.5862 16.9328 11.7793 16.964C12.3134 17.0575 12.0009 17.307 17.1711 12.5818C22.3356 7.85665 22.0629 8.13736 21.9606 7.64872C21.9095 7.39401 21.5686 7.08211 21.2902 7.03533C20.7561 6.94176 21.0288 6.72863 16.3189 11.0276L11.9896 14.9886L7.68297 11.0536C5.274 8.84951 3.31388 7.09251 3.22298 7.06132C3.00708 6.98855 2.74005 6.99894 2.52983 7.08211Z" fill="#9B9A9A"/>
</svg>
