<svg width="24" height="24" viewBox="0 0 24 24" fill="none" xmlns="http://www.w3.org/2000/svg">
<path d="M10.3056 16.4167L18.3333 8.36111L17.1389 7.16667L10.3056 14.0278L7 10.7222L5.80556 11.9167L10.3056 16.4167ZM3.66667 22C3.22222 22 2.83333 21.8333 2.5 21.5C2.16667 21.1667 2 20.7778 2 20.3333V3.66667C2 3.22222 2.16667 2.83333 2.5 2.5C2.83333 2.16667 3.22222 2 3.66667 2H20.3333C20.7778 2 21.1667 2.16667 21.5 2.5C21.8333 2.83333 22 3.22222 22 3.66667V20.3333C22 20.7778 21.8333 21.1667 21.5 21.5C21.1667 21.8333 20.7778 22 20.3333 22H3.66667Z" fill="#9B9A9A"/>
</svg>
